<?xml version="1.0" encoding="UTF-8" standalone="no"?>
<svg id="svg3355" xmlns:rdf="http://www.w3.org/1999/02/22-rdf-syntax-ns#" xmlns="http://www.w3.org/2000/svg" viewBox="0 0 1953.0887 474.90814" version="1.1" xmlns:cc="http://creativecommons.org/ns#" xmlns:dc="http://purl.org/dc/elements/1.1/">
	<metadata id="metadata3417">
		<rdf:RDF>
			<cc:Work rdf:about="">
				<dc:format>image/svg+xml</dc:format>
				<dc:type rdf:resource="http://purl.org/dc/dcmitype/StillImage"/>
				<dc:title/>
			</cc:Work>
		</rdf:RDF>
	</metadata>
	<g fill-rule="evenodd">
		<path id="path3367" fill="#ec650a" d="m153.25 202.39c1.5839 2.9675 3.0608 5.9942 4.3853 9.0846 1.2903 3.0107 2.2597 6.1444 2.9038 9.3577l0.339 1.7045-1.5543 0.776c-7.9672 3.9847-16.735 6.5745-25.444 8.3336-10.154 2.0527-20.504 2.9652-30.858 2.9652-14.33 0-28.49-2.2347-41.846-7.5326-12.47-4.95-23.441-12.26-32.605-22.06-9.615-10.29-16.399-22.59-21.066-35.82-5.4893-15.55-7.501-32.24-7.501-48.67 0-16.87 1.9844-33.969 7.3346-50.018 4.5494-13.645 11.205-26.473 20.72-37.33 8.996-10.266 19.883-18.024 32.465-23.326 13.486-5.6846 27.918-8.0126 42.5-8.0126 10.766 0 22.177 0.5529 32.729 2.815 6.2445 1.3381 12.851 2.7399 18.943 4.6629l1.7841 0.5644-0.207 1.8569c-0.3551 3.1997-0.8671 6.5063-1.7683 9.6012-0.9011 3.0927-2.08 6.158-3.3043 9.1369l-0.7919 1.9184-1.9822-0.6098c-2.7012-0.8329-5.407-1.6476-8.1151-2.451-2.9857-0.8852-6.0533-1.5497-9.1187-2.0913-3.9438-0.6964-7.949-1.1561-11.938-1.5111-5.2796-0.4688-10.623-0.6053-15.923-0.6053-10.903 0-21.656 1.8433-31.612 6.397-9.3781 4.2896-17.279 10.52-23.747 18.556-7.1047 8.8274-11.968 19.157-15.263 29.953-3.9779 13.044-5.4275 26.892-5.4275 40.494 0 13.547 1.5087 27.566 6.0146 40.405 3.648 10.398 8.939 20.174 16.551 28.214 6.9682 7.3596 15.177 12.894 24.648 16.485 9.8401 3.7299 20.172 5.3798 30.676 5.3798 8.618 0 17.341-0.7373 25.743-2.7035 6.5517-1.5316 13.31-3.6525 19.252-6.8522l2.0117-1.0855 1.0741 2.0163zm55.27-46.718c0.2548 14.765 3.1268 31.339 13.768 42.205 10.839 11.074 26.764 14.059 41.682 14.059 7.0979 0 14.239-0.5576 21.207-1.9526 6.5154-1.3017 12.928-3.0654 19.191-5.2864l1.9685-0.6987 0.8625 1.9002c1.2607 2.7741 2.064 5.8281 2.6238 8.8161 0.5667 3.0198 1.0241 6.0852 1.2608 9.1506l0.1229 1.5975-1.461 0.6554c-6.7793 3.0381-14.116 4.9952-21.414 6.306-8.7319 1.5679-17.648 2.1869-26.512 2.1869-12.059 0-24.502-1.5543-35.726-6.1603-9.5283-3.9119-18.019-9.5557-24.81-17.35-6.7224-7.7169-11.362-16.708-14.287-26.491-3.2315-10.81-4.5491-22.102-4.5491-33.364 0-11.09 1.2789-22.152 4.2282-32.856 2.6945-9.7833 6.8931-19.004 12.96-27.167 5.9464-7.9991 13.527-14.128 22.484-18.501 10.118-4.9383 21.462-6.6815 32.636-6.6815 9.6831 0 19.328 1.5247 28.246 5.4116 8.0719 3.5182 15.149 8.5339 20.927 15.184 5.894 6.7838 10.024 14.685 12.737 23.226 2.9902 9.4146 4.2532 19.241 4.2532 29.099 0 2.3804-0.0705 4.7676-0.157 7.148-0.0887 2.5032-0.2184 5.0201-0.4688 7.5166l-0.2048 2.0481h-111.57zm87.539-21.444c-0.1729-5.3684-0.958-10.673-2.3439-15.875-1.4792-5.5436-3.8323-10.753-7.2982-15.34-3.4022-4.5036-7.7465-7.9695-12.744-10.562-5.8121-3.0153-12.43-4.0462-18.918-4.0462-12.168 0-23.456 3.2656-31.794 12.462-8.2789 9.1278-12.041 21.321-13.572 33.362h86.67zm88.96-41.559c1.2903-1.7637 2.6603-3.4659 4.0849-5.1112 3.5069-4.0553 7.5417-7.6009 11.936-10.668 4.8382-3.3771 10.195-5.9214 15.775-7.8147 6.2786-2.1301 12.851-3.0381 19.469-3.0381 15.734 0 31.213 4.0121 41.124 17.022 10.006 13.133 12.753 30.581 12.753 46.684v100.83l-1.9025 0.3163c-1.7386 0.2913-3.5728 0.4051-5.3319 0.4893-1.7205 0.082-3.4545 0.157-5.1772 0.157-1.6659 0-3.3544-0.082-5.018-0.157-1.8091-0.082-3.7071-0.1912-5.4935-0.4893l-1.9002-0.3163v-94.687c0-11.026-1.0559-26.851-7.7146-36.15-5.4435-7.6008-13.406-10.414-22.568-10.414-6.7315 0-13.204 1.329-19.334 4.0986-6.1012 2.7558-11.301 6.7337-15.636 11.838-4.7994 5.6529-8.1447 12.362-10.48 19.366-2.8447 8.5293-3.8756 17.657-3.8756 26.617v79.331l-1.9024 0.3163c-1.7387 0.2913-3.5729 0.4051-5.332 0.4893-1.7204 0.082-3.4568 0.157-5.1795 0.157-1.6658 0-3.3521-0.082-5.0156-0.157-1.8092-0.082-3.7071-0.1912-5.4936-0.4893l-1.9024-0.3163v-160.58l1.9935-0.2481c1.6248-0.2048 3.2565-0.3663 4.8904-0.4756 1.5339-0.1024 3.0722-0.157 4.6083-0.157 1.5907 0 3.1815 0.045 4.7676 0.1593 1.5794 0.1115 3.1564 0.2754 4.7289 0.4733l1.7819 0.2231 0.198 1.7841c0.5143 4.6288 0.7623 9.3326 0.933 13.986 0.0865 2.3099 0.1616 4.622 0.2139 6.9341zm158.64-1.1947h-26.314l-0.3664-1.8297c-0.2799-1.3996-0.4096-2.8719-0.4984-4.2965-0.1047-1.6818-0.1593-3.3703-0.1593-5.0566 0-1.5907 0.0478-3.1837 0.1616-4.7699 0.0933-1.3244 0.2367-2.6671 0.4961-3.9688l0.3664-1.8297h26.314v-28.164l20.388-20.06h4.4353v48.224h41.978l0.3664 1.8297c0.2594 1.3017 0.4028 2.6444 0.4961 3.9688 0.1138 1.5862 0.1616 3.1792 0.1616 4.7699 0 1.6863-0.0546 3.3748-0.1593 5.0566-0.0888 1.4246-0.2185 2.8969-0.4984 4.2965l-0.3664 1.8297h-41.978v99.7c0 3.5706 0.3186 7.9013 1.7978 11.201 1.04 2.3235 2.4828 4.4763 4.5241 6.0329 1.9047 1.4519 4.053 2.3599 6.4061 2.7968 2.6512 0.4893 5.3388 0.7283 8.0332 0.7283 6.026 0 12.27-0.66 17.992-2.6376l2.3076-0.7965 0.6349 2.3554c1.5475 5.7484 2.5465 11.645 3.1382 17.564l0.1866 1.8593-1.7864 0.5438c-8.4975 2.5966-17.612 3.4796-26.466 3.4796-10.958 0-21.458-2.6694-29.896-9.9175-9.2849-7.9786-11.695-20.613-11.695-32.29v-100.62zm121.16-0.4324c3.7844-5.159 8.395-9.608 13.713-13.374 8.8547-6.2741 19.833-8.2517 30.494-8.2517h3.2246c1.3882 0 2.79 0.1343 4.1623 0.33l1.6339 0.2344 0.2868 1.6248c0.5916 3.3703 0.9535 6.7975 0.9535 10.222 0 3.3452-0.3095 6.6837-0.9626 9.9653l-0.4142 2.0777-2.1005-0.264c-1.1538-0.1434-2.394-0.289-3.5592-0.289h-2.9174c-12.262 0-23.274 3.5273-31.832 12.503-10.059 10.548-11.963 28.501-11.963 42.353v82.401l-1.9025 0.3163c-1.7386 0.2913-3.5729 0.4051-5.332 0.4893-1.7204 0.082-3.4568 0.157-5.1795 0.157-1.6658 0-3.3521-0.082-5.0156-0.157-1.8092-0.082-3.7071-0.1912-5.4935-0.4893l-1.9025-0.3163v-160.58l1.9935-0.2481c1.6248-0.2048 3.2565-0.3663 4.8905-0.4756 1.5338-0.1024 3.0722-0.157 4.6083-0.157 1.5907 0 3.1814 0.045 4.7675 0.1593 1.5794 0.1115 3.1564 0.2754 4.7289 0.4733l1.7819 0.2231 0.198 1.7841c0.487 4.3807 0.7533 8.807 0.933 13.21 0.0842 2.0277 0.1525 4.053 0.2049 6.083zm166.64 41.065v-6.9704c0-9.6444-1.6339-20.93-8.8411-28.018-7-6.8863-17.202-8.7159-26.662-8.7159-7.3574 0-14.785 0.4483-22.049 1.6589-5.9987 1.0014-12.009 2.2871-17.826 4.0781l-1.7637 0.5416-0.8943-1.6112c-1.4223-2.5601-2.2666-5.7803-2.8537-8.634-0.6941-3.3771-1.1197-6.8339-1.1197-10.286v-1.6818l1.6067-0.4938c6.4652-1.989 13.313-3.2588 20.001-4.226 8.04-1.1629 16.16-1.7113 24.284-1.7113 15.762 0 33.624 2.6694 45.758 13.64 11.952 10.81 15.183 27.245 15.183 42.694v105.38l-1.8296 0.3664c-8.6795 1.7363-17.473 3.0949-26.236 4.3215-9.7651 1.3677-19.632 2.1733-29.495 2.1733-15.843 0-32.986-2.5647-46.294-11.77-13.056-9.0277-17.414-23.39-17.414-38.73 0-7.9718 1.461-15.78 4.9951-22.964 3.3112-6.7338 7.9354-12.448 13.848-17.07 6.2445-4.8813 13.452-8.2061 21.048-10.377 8.6317-2.4645 17.621-3.4658 26.58-3.4658 6.4061 0 12.883 0.1684 19.264 0.7805 3.5706 0.3414 7.1434 0.6964 10.712 1.0946zm0 22.393c-3.6638-0.4142-7.3323-0.7851-11.001-1.1447-4.8723-0.4779-9.7741-0.7578-14.674-0.7578-11.433 0-24.671 1.5976-34.347 8.2062-7.9877 5.4548-11.602 13.074-11.602 22.691 0 5.0839 0.751 10.682 3.4955 15.074 2.2871 3.6593 5.2887 6.5517 9.1096 8.5589 4.0052 2.1027 8.3131 3.4113 12.785 4.0621 4.7744 0.6964 9.592 1.0514 14.416 1.0514 5.8599 0 11.736-0.2595 17.564-0.908 4.7722-0.5303 9.5284-1.2198 14.253-2.0823v-54.751zm73.16-153.85c1.7387-0.2913 3.5729-0.405 5.332-0.4892 1.73-0.082 3.46-0.1571 5.18-0.1571 1.6658 0 3.3544 0.082 5.0179 0.1571 1.8092 0.082 3.7071 0.1911 5.4936 0.4892l1.9024 0.3164v191.44c0 3.6252 0.2663 8.1812 1.6681 11.572 0.8261 1.9958 2.0482 4.1827 3.8369 5.473 1.5383 1.1106 3.2405 1.7933 5.118 2.0481 1.9298 0.264 3.8892 0.4393 5.8372 0.4393 2.2666 0 4.5332-0.1616 6.7815-0.4415 1.9571-0.2458 3.962-0.5485 5.8782-1.0241l1.8979-0.4733 0.751 1.8069c1.1378 2.7331 1.882 5.6073 2.3007 8.5384 0.3846 2.6944 0.71 5.4025 0.9376 8.1174l0.1434 1.7432-1.6476 0.5894c-3.277 1.1697-6.727 1.8729-10.179 2.2689-3.3977 0.3868-6.8226 0.628-10.243 0.628-4.5014 0-8.9777-0.4915-13.379-1.4336-4.5377-0.974-8.7136-2.8287-12.414-5.6324-3.9074-2.9607-6.7725-6.8749-8.8297-11.297-2.5875-5.564-3.2838-12.243-3.2838-18.315v-196.05l1.9024-0.3164z"/>
		<path id="path3373" fill="#b1b3b4" d="m1616.1 39.545h-0.4346l-10.329 0.061c-10.375 0.064-24.869 6.1194-32.208 13.461l-34.358 34.365-0.01 0.01-0.7032 0.7032-6.7975 6.7998-0.5507 0.5644 89.91-55.991-4.5218 0.025zm-46.313 121.38c1.0332 12.409 4.1486 24.948 11.294 35.08 8.3427 11.825 20.668 16.235 34.846 16.235s26.503-4.4103 34.845-16.235c9.1984-13.042 11.715-30.078 11.715-45.685s-2.5169-32.643-11.715-45.682c-8.3427-11.825-20.668-16.237-34.845-16.237-14.178 0-26.503 4.4125-34.846 16.237-11.749 16.658-12.052 36.828-11.294 56.287zm179.74 313.77 0.3345-0.2071c11.451 1.7091 23.554-1.8183 32.322-10.584l25.313-25.312 0.03-0.018 7.0091-7.0046-0.039 0.025 7.4871-7.4893 8.0992-8.097 8.0923-8.0946 8.0947-8.0924 8.0969-8.0992 8.0947-8.0924 8.0924-8.0992 8.0992-8.0924 8.0924-8.0946 8.0969-8.097 8.0947-8.0946 8.0923-8.0947 8.0992-8.0969 8.0924-8.0924 8.097-8.0969 6.7724-6.7748c0.4028-0.4005 0.7897-0.8124 1.172-1.2288 1.6453-1.7978 3.0859-3.7231 4.3193-5.7394 0.8898-1.4655 1.6749-2.972 2.3508-4.5218 0.5666-1.3017 1.065-2.6284 1.4792-3.9711 0.3686-1.197 0.6759-2.4099 0.9239-3.632 0.2299-1.1196 0.4028-2.2484 0.528-3.3817 0.1206-1.0604 0.1889-2.1277 0.2207-3.1905 0.025-1.0127 0.011-2.0208-0.043-3.0312-0.052-0.9649-0.1388-1.9253-0.264-2.8856-0.1183-0.9262-0.2731-1.8524-0.462-2.7695-0.182-0.8898-0.3959-1.7705-0.6417-2.6512-0.2435-0.8534-0.5143-1.7068-0.8193-2.5442-0.2935-0.8238-0.6189-1.6408-0.974-2.4464-0.3527-0.792-0.7305-1.5771-1.1378-2.3508-0.3983-0.7601-0.8284-1.5088-1.2881-2.2484-0.4551-0.7328-0.9375-1.4473-1.4427-2.1528-0.5052-0.7009-1.04-1.3882-1.5953-2.0595-0.5598-0.6714-1.1424-1.3268-1.7546-1.9617l-0.5757-0.5939-1.2972-1.2949-1.8797-1.8843-1.882-1.8797-1.882-1.8797-1.8843-1.8843-1.8797-1.882-1.882-1.8843-1.8797-1.882-1.8843-1.8797-1.8797-1.8797-1.8797-1.8866-1.8843-1.8797-1.882-1.882-1.882-1.8843-1.8843-1.8797-1.8774-1.882-1.882-1.8843-1.8821-1.8797-1.8842-1.882-1.882-1.882-1.8798-1.882-1.8797-1.882-1.8843-1.8798-1.882-1.882-1.8842-1.8842-1.8798-1.8821-1.882-1.8797-1.8797-1.8797-1.8843-1.8843-1.882-1.882-1.8797-1.8797-1.882-1.8866-1.8843-1.8774-1.8797-1.882-1.882-1.8843-1.8843-1.882-1.8797-1.8797-1.882-1.882-1.8843-1.882-1.8797-1.8843-1.882-1.8797-1.8797-1.8843-1.8843-1.8797-1.882-1.882-1.882-1.8798-1.8798-1.8865-1.8842-1.8797-1.8798-1.8798-1.882-1.8842-1.8842-1.882-1.882-1.882-1.8798-1.8843-1.8797-1.8798-1.8843-1.8797-1.882-1.882-1.882-1.8843-1.8843-1.882-1.8797-1.8797-1.8797-1.8843-1.882-1.8797-1.8843-1.8843-1.882-1.8797-1.8797-1.8843-1.8797-1.8797-1.8843-1.882-1.8843-1.8843-1.882-1.8797-1.882-1.8797-1.8797-1.8866-1.8797-1.8797-1.8843-1.882-1.882-1.8797-1.882-1.8843-1.8798-1.8797-121.06 75.392c-2.8492 8.1948-6.8567 15.894-12.277 22.741-6.1194 7.7283-13.72 13.706-22.604 17.992-9.8356 4.7448-20.695 6.5221-31.548 6.5221-2.938 0-5.8736-0.1274-8.7888-0.4119l-37.351 23.26v47.412l0.8943 0.8943 1.8798 1.882 1.8865 1.882 1.882 1.8798 1.8798 1.882 1.8842 1.8843 1.8798 1.882 1.882 1.8797 1.8842 1.8843 0.4575 0.4551 1.4223 1.4269 1.0991 1.1037 0.7806 0.7783 1.8797 1.882 1.882 1.882 1.8843 1.8797 1.882 1.882 1.8797 1.8843 1.8843 1.882 1.8797 1.8797 1.882 1.8843 1.882 1.8797 1.882 1.882 1.882 1.8843 1.882 1.8797 1.8843 1.8843 1.8797 1.8797 1.882 1.882 1.8798 1.882 1.8842 1.882 1.882 1.8797 1.8821 1.8866 1.882 1.8797 1.8797 1.8798 1.882 1.8842 1.8797 1.8798 1.8866 1.882 1.8797 1.8797 1.8797 1.8865 1.8866 1.8798 1.8797 1.882 1.8797 1.882 1.8866 1.882 1.8797 1.882 1.8797 1.8797 1.8843 1.8843 1.882 1.882 1.8797 1.8797 1.8797 1.8797 1.8798 1.882 1.8842 1.8797 1.8843 1.8843 1.8797 1.882 1.8843 1.8797 1.882 1.8866 1.8797 1.8797 1.8798 1.8797 1.882 1.8797 1.8798 1.8843 1.8797 1.8797 1.8865 1.8843 1.8798 1.882 1.882 1.8797 1.8842 1.882 1.8775 1.882 1.882 1.882 1.8865 1.8843 1.8798 1.8797 1.882 1.8798 1.8797 1.8842 1.8843 1.8821 1.8797 1.8797 1.8843 1.8843 1.8797 1.882 1.882 1.8797 1.882 1.8843 1.882 1.882 1.8797 1.8797 1.8866 1.882 1.8797 1.882 1.8797 1.882 1.8843 1.882 1.882 1.8797 1.8797 1.8843 1.8843 1.882 1.8798 1.8797 1.882 1.8843 0.057 0.055c0.619 0.6213 1.254 1.2107 1.9094 1.7751 0.694 0.603 1.4018 1.1811 2.13 1.7249 0.7601 0.569 1.5361 1.1038 2.3235 1.609 0.8261 0.5279 1.6726 1.0195 2.5306 1.4769 0.908 0.4847 1.8296 0.9285 2.7627 1.3313 1.0036 0.4324 2.0162 0.8169 3.0449 1.1606 1.0263 0.3391 2.0686 0.6326 3.1154 0.8852l-0.025 0.014c0.9603 0.3209 1.9388 0.5917 2.9242 0.8215zm-205.94-200.92-3.0221 1.882 3.0221-1.882v-123.73h0.027c0.023-11.017 1.3564-21.992 4.3876-32.599 1.3245-4.6288 2.9994-9.1164 5.0657-13.411 0.2503-0.5188 0.5029-1.0354 0.7646-1.5497 2.1369-4.1941 4.6675-8.1925 7.6282-11.934 6.1512-7.7669 13.823-13.732 22.768-17.996 8.7888-4.1918 18.351-6.0761 28.016-6.447l0.7556-0.027c0.974-0.03 1.948-0.043 2.922-0.043 10.853 0 21.712 1.7773 31.55 6.5222 8.8798 4.2851 16.483 10.263 22.602 17.992 6.3241 7.9877 10.723 17.132 13.606 26.874 3.1632 10.689 4.5468 21.765 4.5468 32.898s-1.3836 22.209-4.5468 32.898c-0.4119 1.3905-0.8534 2.7695-1.329 4.1349l121.06-75.394-1.4291-1.4246-0.4551-0.4574-1.8798-1.8843-0.1866-0.1866-1.6954-1.6931-1.8842-1.8797-1.8798-1.8866-1.882-1.8797-1.8797-1.882-1.8843-1.8798-1.8797-1.8842-1.882-1.8798-1.8843-1.8842-1.882-1.8798-1.882-1.8842-1.8797-1.8798-1.8843-1.882-1.8797-1.8797-1.882-1.8843-1.8843-1.8797-1.882-1.8866-1.8797-1.8797-1.8797-1.8797-1.8843-1.8843-1.882-1.882-1.882-1.8797-1.8843-1.882-1.8797-1.882-1.8798-1.882-1.8865-1.882-1.8797-1.882-1.882-1.8797-1.8798-1.8843-1.4337-1.4292-0.4551-0.4483c-0.6372-0.603-1.3153-1.2015-2.039-1.7818-0.7078-0.569-1.4542-1.1265-2.2325-1.6681-0.7692-0.5348-1.5702-1.0537-2.4008-1.5566-0.8261-0.5052-1.6841-0.9945-2.5602-1.4633-0.8898-0.4711-1.7978-0.9239-2.7217-1.354-0.949-0.4438-1.9139-0.8625-2.8856-1.2539-1.0173-0.4142-2.0413-0.7965-3.0699-1.147-1.0924-0.3709-2.1893-0.7077-3.2861-1.0081-1.1971-0.3254-2.3873-0.6054-3.5615-0.8352-1.3541-0.264-2.6808-0.4597-3.9711-0.5803-1.04-0.096-2.0504-0.1434-3.029-0.1343l-1.6749 0.011-4.9519 0.03-4.9519 0.03-4.9542 0.032-4.9496 0.03-4.9497 0.03-4.9542 0.032-4.9519 0.029-4.9542 0.027-4.9473 0.032-4.9542 0.027-4.9497 0.034-4.9474 0.029-4.9519 0.03-4.9542 0.032-4.9473 0.03-4.9519 0.03-4.952 0.03-4.9519 0.032-89.91 55.991c-1.5725 1.6612-3.0768 3.6479-4.4672 5.8349-0.9466 1.4883-1.8387 3.0699-2.6648 4.7153l106.95-66.607-106.95 66.61c-0.6986 1.3837-1.3449 2.8082-1.9389 4.2579-0.5348 1.3108-1.0263 2.6376-1.461 3.9666-0.4119 1.2471-0.7783 2.4896-1.0877 3.7276-0.2982 1.1856-0.5462 2.3621-0.7465 3.5182-0.1911 1.1311-0.3368 2.2371-0.4278 3.3157-0.064 0.7852-0.1001 1.5475-0.1024 2.2894v0.8329l-0.018 3.0654-0.018 3.0653-0.02 3.0654-0.016 3.0676-0.023 3.0654-0.018 3.0631-0.018 3.0653-0.018 3.0654-0.021 3.0631-0.018 3.0676-0.018 3.0677-0.02 3.0653-0.018 3.0654-0.018 3.0654-0.023 3.0653-0.016 3.0677-0.021 3.063-0.016 3.0654-0.023 3.0677-0.014 3.063-0.023 3.0654-0.018 3.0676-0.018 3.0631-0.018 3.0654-0.021 3.0676-0.018 3.0677-0.018 3.0631-0.023 3.0653-0.016 3.0677-0.02 3.0631-0.018 3.0676-0.021 3.0654-0.016 3.0631-0.02 3.0676v1.0309c-0.01 0.6486 0.016 1.3131 0.055 1.9912 0.061 0.9331 0.1593 1.8934 0.2958 2.8697 0.132 0.9034 0.2982 1.8183 0.4893 2.7513 0.1843 0.8761 0.3937 1.7659 0.6327 2.658 0.2275 0.858 0.4824 1.7204 0.7555 2.5807 0.2708 0.8374 0.5621 1.6794 0.8693 2.5146 0.3072 0.8215 0.6327 1.6385 0.9763 2.4486 0.3368 0.8056 0.6941 1.6044 1.0696 2.3873 0.3732 0.7873 0.7646 1.5634 1.1674 2.3234 0.4119 0.7715 0.8375 1.5248 1.2767 2.2598 0.4483 0.751 0.9125 1.4838 1.3881 2.1892 0.4939 0.7328 0.9991 1.436 1.5202 2.1073 0.5416 0.71 1.0992 1.3837 1.6704 2.0163 0.3459 0.3869 0.6986 0.7601 1.0559 1.1174l0.7874 0.7874 1.8797 1.882 1.882 1.882 1.8843 1.8797 1.882 1.8843 1.8797 1.8797 1.8843 1.8843 1.1378 1.1355v-4.9018zm26.196-16.314 37.351-23.26c-7.9103-0.7669-15.668-2.658-22.905-6.1057-5.275-2.5146-10.109-5.6232-14.446-9.3417v38.707zm62.511-97.714-0.2844 0.2139zm-2.353 1.5953-0.2982 0.182m-2.476 1.3017-0.1456 0.064m-0.1684 0.08zm-2.9038 1.1151m-0.66 0.2026-0.1047 0.032m-0.223 0.062-0.33 0.089-0.032 0.01m-0.2253 0.059-0.08 0.018-0.1502 0.041-0.1046 0.025zm-4.1145 0.7509zm-100.35-40.435 35.929-22.375zm94.341-58.752 43.034-26.801m-19.81 0.1206"/>
		<path id="path3375" fill="#b1b3b4" d="m1033 201.89c3.0198 0.8647 6.0192 1.8023 9.0004 2.7945 3.2883 1.0969 6.6655 1.9685 10.052 2.7013 4.1486 0.8966 8.3541 1.5679 12.56 2.1164 5.2773 0.6895 10.668 0.9034 15.984 0.9034 8.1971 0 16.808-0.8147 24.621-3.4181 6.0397-2.0117 11.902-4.8904 16.738-9.0823 4.2488-3.6798 7.5212-8.0901 9.6763-13.279 2.2233-5.3524 3.2064-11.008 3.2064-16.79 0-5.0179-0.5143-10.307-2.1755-15.07-1.5156-4.3421-4.1463-8.0606-7.4256-11.251-4.2829-4.1668-9.8083-7.5075-15.108-10.197-8.0264-4.078-16.396-7.6145-24.81-10.807-6.9637-2.6421-13.87-5.4707-20.597-8.6727-6.3742-3.0357-12.323-6.8544-17.587-11.57-5.1999-4.6584-9.2643-10.225-12.216-16.551-3.4477-7.3914-4.5127-15.916-4.5127-24 0-16.79 5.9532-31.015 18.765-41.966 14.69-12.555 35.109-15.905 53.848-15.905 4.6288 0 9.2576 0.2139 13.87 0.6235 4.3603 0.3869 8.7159 0.8875 13.044 1.5543 3.7731 0.5803 7.5371 1.288 11.249 2.1869 2.7581 0.6691 5.5368 1.3677 8.2562 2.1824l1.8593 0.5576-0.2572 1.9229c-0.4278 3.2133-1.0104 6.4061-1.725 9.5671-0.71 3.1586-1.5998 6.2764-2.6876 9.3258l-0.7509 2.0982-2.1119-0.7032c-5.9578-1.9867-12.378-3.2998-18.558-4.3716-7.4302-1.2881-14.954-1.964-22.495-1.964-11.431 0-26.248 1.568-34.987 9.822-7.107 6.711-10.345 15.02-10.345 24.762 0 4.6424 0.842 9.2416 3.095 13.34 2.1824 3.9688 5.1817 7.289 8.7637 10.043 4.2464 3.2656 8.9958 5.9373 13.85 8.1834 5.8076 2.6899 11.747 5.1203 17.696 7.4757 8.2449 3.2656 16.33 6.9045 24.282 10.826 7.132 3.5182 13.88 7.8671 19.733 13.27 5.5663 5.1385 9.9425 11.194 13.117 18.074 3.5956 7.792 4.8176 16.547 4.8176 25.064 0 10.104-1.6703 20.124-5.8872 29.356-3.8983 8.5316-9.476 15.816-16.765 21.712-7.7351 6.2536-16.779 10.502-26.28 13.313-11.135 3.2929-22.85 4.5468-34.434 4.5468-10.054 0-20.738-0.5189-30.585-2.6648-7.6304-1.6613-15.206-3.6434-22.639-6.0488l-1.8069-0.5826 0.2526-1.882c0.4642-3.4818 1.2539-6.9318 2.2165-10.307 0.9649-3.3725 2.0937-6.7201 3.4773-9.947l0.7897-1.8411 1.9275 0.5485zm192.39-109.65c1.2607-1.7181 2.6011-3.3794 3.9893-4.9837 3.475-4.0189 7.4415-7.5667 11.763-10.655 4.647-3.3202 9.7764-5.8371 15.179-7.6736 6.0215-2.0459 12.357-2.8856 18.702-2.8856 15.882 0 31.359 4.0872 41.559 16.99 10.336 13.074 13.24 30.469 13.24 46.716v100.83l-1.9025 0.3163c-1.7386 0.2913-3.5729 0.4051-5.332 0.4893-1.7204 0.082-3.4545 0.157-5.1772 0.157-1.6658 0-3.3544-0.082-5.0179-0.157-1.8092-0.082-3.7071-0.1912-5.4935-0.4893l-1.9002-0.3163v-94.687c0-11.142-1.147-26.858-8.1402-36.102-5.712-7.5462-13.748-10.461-23.064-10.461-6.6473 0-13.108 1.2039-19.227 3.8118-5.9669 2.5442-11.058 6.306-15.295 11.217-4.7153 5.4663-7.9354 12.045-10.154 18.877-2.7536 8.4861-3.7276 17.587-3.7276 26.478v80.867l-1.9025 0.3163c-1.7386 0.2913-3.5728 0.4051-5.3319 0.4893-1.7205 0.082-3.4568 0.157-5.1795 0.157-1.6658 0-3.3521-0.082-5.0157-0.157-1.8091-0.082-3.7071-0.1912-5.4935-0.4893l-1.9025-0.3163v-229.61l1.9025-0.3164c1.7386-0.2913 3.5729-0.405 5.332-0.4892 1.7204-0.082 3.4545-0.1571 5.1772-0.1571 1.6658 0 3.3544 0.082 5.0179 0.1571 1.8092 0.082 3.7071 0.1911 5.4935 0.4892l1.9025 0.3164v91.274zm214.27 142.37c-10.907 0-21.79-1.7978-31.694-6.5176-8.9458-4.2646-16.617-10.229-22.768-17.996-6.3196-7.9832-10.666-17.134-13.458-26.896-3.0563-10.696-4.3876-21.767-4.3876-32.877s1.3313-22.181 4.3876-32.877c2.7923-9.7627 7.1388-18.911 13.458-26.894 6.1513-7.7669 13.823-13.732 22.768-17.996 9.9016-4.7221 20.786-6.5176 31.694-6.5176 10.853 0 21.712 1.7773 31.55 6.5222 8.8798 4.2851 16.483 10.263 22.602 17.992 6.3242 7.9877 10.723 17.132 13.606 26.874 3.1633 10.689 4.5469 21.765 4.5469 32.898s-1.3836 22.209-4.5469 32.898c-2.8833 9.7423-7.2822 18.888-13.606 26.876-6.1193 7.7283-13.72 13.706-22.604 17.992-9.8355 4.7448-20.695 6.5221-31.548 6.5221zm0-22.368c14.178 0 26.503-4.4103 34.846-16.235 9.1984-13.042 11.715-30.078 11.715-45.685s-2.5169-32.643-11.715-45.682c-8.3427-11.825-20.668-16.237-34.846-16.237s-26.503 4.4125-34.845 16.237c-9.1984 13.042-11.718 30.076-11.718 45.682 0 15.609 2.5192 32.643 11.718 45.685 8.3427 11.825 20.668 16.235 34.845 16.235z"/>
	</g>
</svg>
