<?xml version="1.0" encoding="UTF-8"?>
<svg width="96px" height="67px" viewBox="0 0 96 67" version="1.1" xmlns="http://www.w3.org/2000/svg" xmlns:xlink="http://www.w3.org/1999/xlink">
    <!-- Generator: Sketch 49.3 (51167) - http://www.bohemiancoding.com/sketch -->
    <title>Group 4</title>
    <desc>Created with Sketch.</desc>
    <defs>
        <polygon id="path-1" points="0.0768131068 0.0644680851 32.9931917 0.0644680851 32.9931917 14.9940319 0.0768131068 14.9940319"></polygon>
    </defs>
    <g id="Elementos" stroke="none" stroke-width="1" fill="none" fill-rule="evenodd">
        <g id="Cabecera-Desktop-HD" transform="translate(-165.000000, -18.000000)">
            <g id="Group-4" transform="translate(165.000000, 18.000000)">
                <g id="Page-1">
                    <path d="M25.2851134,56.470573 L25.0327228,56.470573 C24.193048,56.470573 24.1308861,55.1617994 24.1308861,54.4457188 C24.1308861,53.3928544 24.4089876,52.121612 24.6844856,51.1449724 C24.7399757,50.948017 24.779844,50.8267881 24.8390769,50.6399628 C25.095373,49.8322133 25.3542727,49.074782 25.818372,48.362687 C26.0858963,47.9521695 26.7444552,47.3541625 27.3771403,47.3398807 C27.3771403,48.1658976 27.1240988,50.4031514 27.0492441,51.2022655 C26.9529093,52.2303859 26.7483606,53.9280882 26.550972,54.9278111 C26.4360862,55.5095436 26.288655,55.907606 25.7841992,56.2437255 C25.690468,56.3060006 25.4105764,56.470573 25.2851134,56.470573 M9.8110139,44.1734824 C9.8110139,43.3149164 10.9473412,41.8211443 11.5518745,41.2008843 L11.6905185,41.0481027 C12.1943233,40.4871286 12.9747652,39.8366444 13.6054977,39.431275 C14.3286595,38.9662876 15.5175478,38.3931906 16.3757735,38.3931906 C17.8064752,38.3931906 18.64436,39.5153049 17.6963086,40.9559356 C17.5877692,41.120674 17.4891562,41.2852463 17.3594623,41.4222515 C15.374022,43.5208394 12.6789263,44.1734824 9.8110139,44.1734824 M5.01380221,41.743591 C5.01380221,41.2854124 5.12998977,40.917408 5.32656479,40.5532232 C5.76609223,39.7386649 6.39503467,39.4937162 7.21436848,39.2771649 C7.37270251,39.235316 7.64689863,39.2160523 7.64689863,39.0190969 C7.64689863,38.5672288 7.10208639,38.0040958 6.81096659,37.8104617 C5.31826568,36.8172154 2.79842773,37.5306389 1.59684662,38.4400215 C1.46991904,38.5361742 1.41426617,38.6024349 1.30377409,38.6931075 C1.00809791,38.9362295 0.748710006,39.2486014 0.540581317,39.5707713 C0.171352236,40.1423736 0,40.721283 0,41.522722 C0,42.3932449 0.226516915,43.0917224 0.552460437,43.646386 C1.13421185,44.6368092 2.28388284,45.8419569 3.42623107,46.162134 C3.76063643,46.2557957 4.1609465,46.3438112 4.47728909,46.4515887 C4.80616171,46.5635178 5.11095063,46.7446968 5.44665781,46.8244089 C5.43168687,47.5102654 4.46606088,49.9057809 4.13279461,50.7852714 C3.3364054,52.888177 2.77743586,55.8265654 2.77743586,58.3482918 C2.77743586,60.5139707 3.00183731,62.7121987 4.1332828,64.4751653 C4.34987332,64.8127794 4.58045843,65.1432526 4.86002457,65.427061 C4.93325202,65.501459 4.98402305,65.5592503 5.0583896,65.6293305 C5.40434862,65.9559842 5.66048197,66.1036177 6.05818839,66.3394327 C6.15370954,66.3960616 6.21619696,66.4397372 6.3358018,66.4980267 C6.51724315,66.5862082 6.76345011,66.687509 6.95677058,66.7476253 C8.26331104,67.1536589 9.89986321,67.0400691 11.1681627,66.6184252 L11.8983217,66.3696569 C11.9751292,66.3399309 12.0480312,66.3017355 12.1246759,66.2693525 C12.4216539,66.143972 12.7375083,66.0072989 13.006009,65.8435569 C14.1000271,65.1769642 14.6951222,64.7986637 15.7061492,63.9973908 C16.0604073,63.7169037 16.3645453,63.3854341 16.6914652,63.0518056 L17.1034917,62.6255118 C17.1083735,62.6196995 17.1153708,62.6115622 17.1204153,62.6059159 L18.5455843,60.9679977 C18.6375254,60.8409565 18.7050574,60.7275328 18.7981376,60.5996612 C18.8938215,60.4679702 18.9659098,60.3472395 19.0594782,60.2039237 L19.831621,59.0039241 C20.0343797,58.6814221 20.3591841,58.0193132 20.6320784,57.83282 C21.0608659,58.6599994 21.4538532,59.8576742 22.4355892,59.8576742 C23.5027573,59.8576742 24.2976819,59.2347571 25.104323,58.6055295 C25.1785268,58.5479043 25.2546833,58.4972538 25.3292126,58.4303289 C25.7604409,58.0432268 26.2959777,57.7002986 26.619643,57.2070798 C27.4283995,57.7597506 27.8335914,59.0097364 30.1309807,57.7350066 C30.2497719,57.669078 30.2948474,57.6396842 30.3999695,57.5677772 L30.8914071,57.1859893 C31.0632475,57.048652 31.1665796,56.927257 31.318079,56.7744755 L32.2921668,55.5965627 C32.3704389,55.5085472 32.4308108,55.4529148 32.4630309,55.3291949 L32.535282,55.3291949 C32.6059058,55.6392419 32.9269675,56.1126987 33.120288,56.3151343 C33.7780332,57.0046442 35.2782196,56.8159922 35.9678594,56.32925 C36.0674488,56.2593358 36.1314007,56.1945697 36.2254573,56.1138612 L37.0080147,55.4766623 C37.0080147,56.7900857 36.6892312,58.2511426 36.3226058,59.1950671 C36.115128,59.7294705 35.9166002,60.2276713 35.6489132,60.7164063 C34.863264,62.14973 33.8637907,63.3288053 32.4745846,64.1770752 C31.5172577,64.7616308 30.3459439,65.2332609 29.1445255,65.2332609 L28.4592793,65.2332609 C27.1428125,65.2332609 25.2332033,64.1564829 25.9280504,63.1281964 C26.13683,62.8191458 26.6066248,62.6195334 26.800108,62.3245985 C26.3034632,61.5676654 24.4968606,61.5944022 23.6768759,62.7447479 C23.1522419,63.4805904 23.4775345,64.4263416 23.9398438,65.0600531 C25.5944587,67.3278631 30.0299268,66.9400968 32.236514,66.0328732 C32.9526785,65.7384365 33.5523299,65.4662528 34.206007,65.0975842 C34.3383046,65.0230201 34.4351275,64.9567594 34.5667742,64.8768812 C35.0663482,64.5738091 35.8210791,64.0324309 36.2420556,63.6046424 C36.2965693,63.5491761 36.3286267,63.5086558 36.3859068,63.4570089 C37.0584603,62.8521932 37.665109,62.1668349 38.1692393,61.4115625 C38.2543459,61.283857 38.3246443,61.1983325 38.4077981,61.0658111 L39.0398324,59.9435308 C39.7530678,58.5983886 40.2155398,56.9654524 40.4503558,55.455904 C40.6651563,54.0752235 40.8238158,52.6488746 41.0010262,51.2685262 C41.2735951,49.1471872 41.5702476,47.0746718 41.7987173,44.9769143 C41.8218246,44.7655111 41.8275201,44.6514231 41.8441183,44.4342075 C41.853882,44.3035129 41.8703175,44.0512572 41.8926111,43.89449 C41.9191358,43.7088272 42.1070862,42.1486283 41.9134403,42.1486283 C41.6031186,42.1486283 39.7011576,42.6567931 39.3309522,42.7526137 C38.2016222,43.0442273 38.5020174,42.7928019 38.2135013,44.8885667 C38.0802273,45.8565708 38.0102544,46.8403514 37.9031796,47.8118429 C37.8681932,48.1286986 37.8297894,48.471959 37.7982203,48.8090749 C37.6970037,49.8888421 37.5214205,51.5931871 37.2532453,52.5975599 C37.1173677,53.1060568 36.822017,53.8196465 36.2143919,53.8196465 C36.0362051,53.8196465 36.1227762,53.5139172 36.0964143,53.3143048 C35.9803895,52.4373053 36.1423035,51.0194258 36.2614202,50.1861019 C36.5261781,48.3372787 36.8233188,46.524326 37.0506494,44.6588961 C37.1041868,44.2199812 37.1521914,43.6991953 37.1521914,43.2162726 C36.8874335,43.2162726 36.5990801,43.3079416 36.3855814,43.3544403 C36.113338,43.4133941 35.8726638,43.4783262 35.6298741,43.5402692 C35.1234656,43.6694693 34.6439071,43.8041496 34.1065804,43.8998041 C33.5983818,43.9903106 33.608471,44.291556 33.4727561,45.1305262 C33.2984748,46.2089649 33.1876572,47.3985023 33.0504778,48.491721 C32.8426746,50.1469101 32.7951581,51.9987225 32.4202335,53.5549358 C32.3569325,53.8178197 32.3030696,54.0039808 32.1678429,54.218041 C31.7164364,54.9321289 30.4024104,56.0025963 30.168408,54.6156053 C30.1062461,54.2480992 30.1500198,54.086516 30.1544135,53.7459127 L30.2517246,52.888011 C30.5371489,50.9098216 30.7960487,48.9970627 31.0233792,47.0115664 C31.0995358,46.3454719 31.1646268,45.5853835 31.1646268,44.8731224 L30.4792179,44.8731224 C29.0986363,44.8731224 27.6405964,45.400385 26.7034478,45.8789899 C26.1945984,46.1388846 25.7082054,46.4824771 25.2540324,46.8293909 C24.4006885,47.4810376 23.5634547,48.4183194 22.9146595,49.3014633 C21.7099865,50.9413743 21.4343259,52.5719856 20.8924427,54.5642906 C20.5604783,55.7847165 19.8062355,57.1358371 19.117572,58.2016547 C18.6269481,58.9609127 17.9369828,60.0197555 17.3407486,60.658615 C17.2694739,60.7350058 17.2694739,60.7458001 17.2107292,60.8205303 L16.5118139,61.6164891 C16.4021354,61.7297467 16.3152388,61.8159355 16.2044213,61.9286949 C16.0996247,62.0359742 16.0208645,62.1161845 15.9159051,62.2232977 C15.8594386,62.2809229 15.8267304,62.3124756 15.7712402,62.3701008 C15.7380438,62.4048088 15.7343011,62.4094587 15.7015928,62.4463256 C15.1019413,63.1233805 14.3437931,63.633206 13.5737658,64.1035075 C12.3051409,64.8782098 10.7069924,64.9509471 9.60369885,63.8248472 C9.13178861,63.3432531 8.80926237,62.7444157 8.51260983,62.1405963 C8.22930096,61.5643441 7.97219124,60.7738655 7.81288085,60.0566224 C7.72582155,59.6645383 7.64950227,59.2689669 7.58457393,58.8905003 C7.37611979,57.6768832 7.26985862,56.187761 7.28482956,54.9595299 C7.28743321,54.7308557 7.32290784,54.5745868 7.32225693,54.2984174 C7.32160602,54.0332085 7.32990513,53.8430619 7.35301246,53.6301641 L7.39369438,52.972373 C7.40541077,52.7299152 7.41875444,52.5314652 7.45097452,52.2943217 C7.69034692,50.5358389 7.84672821,49.3615796 8.4089523,47.6389673 C8.60471369,47.0391335 8.52920805,46.9879849 9.08329576,46.9282008 C9.46912307,46.886684 9.89660865,46.8056434 10.3157951,46.7872099 C11.3250321,46.7430361 14.1940837,46.328367 15.149946,46.0884003 C16.273906,45.8062526 17.2541775,45.4965377 18.3032828,45.0732331 C18.7886994,44.877108 19.2327832,44.646275 19.6739379,44.3735931 C19.8312956,44.2764439 19.9513886,44.2080244 20.0983317,44.1073878 C20.9726675,43.5083844 21.6247172,42.9410997 22.2453606,42.0649306 C22.6546206,41.4868516 22.9766587,40.7224454 22.9766587,39.9763067 C22.9766587,38.999501 22.9340241,38.4612781 22.3278635,37.6563516 C22.1207112,37.3815108 21.8932179,37.1578187 21.6164181,36.9467476 C20.8293044,36.3462496 19.9113576,36 18.8646932,36 C17.6164093,36 16.8608647,36.0906725 15.7219338,36.5108219 C14.9297755,36.8029336 14.1921309,37.1765842 13.504932,37.5982282 L11.9855437,38.6613887 C11.429666,39.0871843 10.8824129,39.5270956 10.397159,40.0223072 L9.71223821,40.795847 C9.63819712,40.8805412 9.62387708,40.9175741 9.54983599,40.9982826 C9.47351671,41.0814822 9.44471392,41.1027387 9.37832103,41.1912524 C9.27173441,41.3332396 9.15196684,41.455797 9.03268746,41.6117339 L7.45634453,43.7214482 C7.11396551,44.1909195 7.19077297,44.1640166 6.5416523,43.9393281 C5.77797135,43.6752816 5.01380221,42.6805407 5.01380221,41.743591" id="Fill-1" fill="#3973C8"></path>
                    <path d="M48.736901,43.5446778 C48.6935281,43.7775149 48.7281948,43.9462684 48.5999754,44.568208 C48.3815275,45.6257517 47.4695867,47.7901344 46.3600931,48.071445 C45.6088223,48.2618883 45.734509,48.0234645 45.7797816,47.687765 L45.8532307,46.5613724 C45.9911061,45.4254494 46.5188636,43.2158796 47.3765089,42.3144369 C47.8629512,41.8030826 48.3748791,41.6970982 48.6461977,42.5094811 C48.7030258,42.6802064 48.721863,42.7963785 48.7380091,42.9970094 C48.7671355,43.3632719 48.8101919,43.1511387 48.736901,43.5446778 M86.0702774,47.0783135 C85.9817901,46.6844458 85.4385198,46.4820073 85.4385198,43.9089684 C85.4385198,43.5643958 85.4659049,43.3514411 85.4730282,43.0339807 C85.4790434,42.7597358 85.5592993,42.4789181 85.5789279,42.2332643 L88.1051669,42.5245982 C88.1051669,42.7061685 88.0736661,42.7037037 88.0692338,42.887903 C88.0654347,43.0329948 88.0755656,43.1309277 88.0556204,43.2743764 C88.0181043,43.5440205 88.0006918,43.7615761 87.9600098,44.0133097 C87.8067797,44.9619113 87.3070406,47.0783135 86.0702774,47.0783135 M65.9298575,39.8651287 C65.8049623,40.4215058 65.2754636,45.4436886 65.1379048,46.4747774 C65.0836094,46.8832692 65.0907327,47.4710309 64.8866897,47.707483 C64.4781288,48.1812087 63.5880329,48.5597949 63.131825,48.3806895 C63.0463454,48.3471688 63.0871857,48.3833185 63.0447625,48.288672 C63.0362145,48.2699399 63.0086711,48.1693779 62.9925249,48.1243551 C62.865097,47.7723882 62.7709111,47.3625817 62.7386188,46.9305925 C62.6884391,46.2560715 62.7270633,45.5386638 62.8215657,44.8710441 C62.9559587,43.9207992 63.094309,43.3737882 63.408684,42.4935423 C63.5810679,42.0097933 63.8631506,41.4028065 64.1499821,41.0045023 C64.5648748,40.4289001 65.1274572,39.8651287 65.9298575,39.8651287 M88.3859832,40.1567912 C88.3859832,40.5411285 88.3734779,40.6183575 88.2341778,40.6126064 C88.0697087,40.6058694 87.7793946,40.6058694 87.622682,40.5846725 C87.1370312,40.5191101 86.6646772,40.3265306 86.3066127,40.0204082 C86.1665211,39.9004568 86.078667,39.8578987 86.1223566,39.5951559 C86.2640311,38.7413651 86.6054747,37.8765651 87.522006,37.8032798 C88.1289112,37.7548063 88.3859832,39.5233494 88.3859832,40.1567912 M54.4211366,34.4372474 C54.4211366,35.0312531 54.2674316,35.6476059 54.1754618,36.2222222 L53.8188219,38.9119261 C53.7357168,39.718065 53.8788159,39.9357849 53.0457064,40.1495613 C52.7785035,40.2180814 52.5306126,40.3388544 52.2456806,40.3388544 C52.2456806,40.8410069 52.1755556,41.2854842 52.1755556,41.8324953 C52.57636,41.8324953 52.9518371,41.7232246 53.368471,41.7232246 C53.368471,42.2934043 53.2715942,42.9876434 53.1881724,43.5031056 C53.0992103,44.0525814 52.9925191,44.6386999 52.9184367,45.1903119 C52.6695961,47.0419994 52.5277633,48.2436492 51.3774294,49.5282789 C50.5663229,50.4341582 50.4760944,50.6860561 49.3319341,51.3753656 C48.6997016,51.7562523 47.5379704,52.0977028 46.8273816,51.6108318 C46.3781388,51.3032305 46.128665,50.8487298 45.9925308,50.2920241 C45.9591304,50.155148 45.9201897,50.0079201 45.894071,49.8477111 C45.868902,49.6939104 45.857663,49.5198988 45.8247375,49.3734924 C46.2198432,49.3642906 47.7594259,48.8466923 48.0956457,48.7076802 C51.1467928,47.4450688 53.2497494,42.4266654 50.4567824,40.993986 C49.986328,40.7526044 49.4504975,40.7396234 48.9122925,40.7396234 C47.7282417,40.7396234 45.7574619,41.7749844 44.9392321,42.6253245 L43.8297385,43.8049558 C43.5623772,44.149857 43.2921667,44.4848993 43.0678619,44.8718657 C42.5130359,45.8299977 42,47.1644155 42,48.4626836 L42,49.3005357 C42,51.8047258 43.3958503,54 45.8597208,54 C47.6874014,54 49.1491027,53.1003648 50.3165325,52.179204 L51.3388053,51.164054 C51.5939777,50.8393638 52.2094309,49.7259522 52.5614802,49.628348 C52.8749055,50.2433862 52.7924335,50.6888495 53.4305229,51.494824 C53.6545111,51.7777778 53.8351264,51.9554044 54.1414283,52.1409182 C55.09136,52.7168491 56.3243242,52.3218311 57.1178598,51.6997272 C57.293093,51.5625226 57.4333429,51.441421 57.6038272,51.2933715 C57.9940258,50.9547143 58.9797323,49.6363995 59.0878482,49.1547866 L59.1579731,49.1547866 C59.2043537,49.3618259 59.3571089,49.7167505 59.4500284,49.9081797 C59.567642,50.1508758 59.6494808,50.3994873 59.7821325,50.619672 C60.1766051,51.2741464 60.6320214,51.3770088 61.4385373,51.3770088 C62.9372798,51.3770088 63.8063224,50.4086891 64.706391,49.6694272 C64.8417337,49.5583489 64.98325,49.4341253 65.1228667,49.3368497 C65.7155253,49.7489566 65.9931757,50.5754708 66.8421148,50.5754708 C67.9897577,50.5754708 69.0196287,50.2029643 69.8156971,49.3641263 C70.0669121,49.0994117 70.2500601,48.9820895 70.5614275,48.82681 C70.5020666,49.0913602 70.4913025,49.8348943 70.4913025,50.1748661 C71.41005,50.1748661 72.5779547,50.2238325 73.4083732,49.9612541 C74.0512115,49.757994 74.0347488,49.4231161 74.1667673,48.7449801 C74.5428776,46.8139275 74.6547925,39.3917316 76.7368541,39.3917316 L76.8421207,39.3917316 C76.8421207,40.0741398 76.8212257,40.8043643 76.7222909,41.4166092 L76.3930362,43.0783463 C76.2675078,43.6296296 76.1581255,44.1608663 76.0553917,44.731539 C75.8917141,45.6393901 75.7541553,46.6634132 75.9786184,47.5740576 C76.2000739,48.4735285 76.6102177,49.3368497 77.7193947,49.3368497 L78.2455692,49.3368497 C79.0652236,49.3368497 80.1671191,48.6912485 80.641056,48.2173584 C80.9419759,47.9166585 81.8323884,46.7574025 81.8947569,46.7140228 C82.4139664,46.8579644 82.6550505,48.6082684 85.2279867,48.6082684 C86.3134194,48.6082684 87.3518383,48.4278484 88.2659952,47.86457 C88.6365651,47.6361694 88.948724,47.4355385 89.2741796,47.1627724 C89.9110027,46.629071 90.4102669,46.0160045 90.8565021,45.3082914 C91.4653069,44.3432581 91.7731918,43.2791416 92.0210826,42.1458477 C92.0676215,41.9327286 92.1592747,41.632193 92.1754208,41.4317263 C92.949961,41.4138158 94.6340676,39.7934865 95.1369726,39.0055868 C95.6819842,38.1514674 96,37.3857504 96,36.2587006 C96,34.7234875 94.2098354,33.8890861 93.2570544,35.1231062 C92.969748,35.4952841 92.9121284,35.9630944 92.9121284,36.6229912 C93.2673436,36.592264 95.2262513,35.7905616 94.1406603,38.0441684 C93.8305593,38.6881265 92.7997385,40.0473561 92.0701543,40.0473561 C92.0701543,39.4827632 91.9476335,38.8800486 91.7850639,38.3760886 C91.6033406,37.8118242 91.4027801,37.3822998 90.9939027,37.0117651 C90.9302679,36.9540898 90.9264688,36.9524467 90.8576102,36.8983864 C90.5701455,36.6731079 90.2589364,36.5207861 89.9152767,36.3832528 C89.2494855,36.1165664 88.4350548,36.0766374 87.684259,36.0766374 C86.4663329,36.0766374 85.3891315,36.7039995 84.4909625,37.4242006 C84.3741404,37.5176969 84.3163625,37.6039633 84.1957413,37.7005817 C84.0660972,37.80443 84.0149677,37.8648986 83.9032111,37.9797562 C83.4628328,38.4321207 82.7353064,39.4656742 82.4674703,40.0227086 C82.0717313,40.8451149 81.8529669,41.8466266 81.7597308,42.7850406 C81.7234811,43.1508101 81.753399,43.5412271 81.7141417,43.9037103 C81.6270791,44.7085346 81.7521326,45.3109205 81.3831456,45.8914522 C80.9828161,46.5214434 79.4035013,47.5600907 79.4035013,45.8760064 C79.4035013,44.5859542 80.0324096,42.5830951 80.2660538,41.2342174 C80.4609157,40.1076605 80.6982007,38.2505505 80.0358921,37.2779585 C79.5461256,36.5587433 78.342921,36.6514181 77.6442043,36.8729173 C77.3257136,36.9739722 77.0740237,37.1170922 76.8316732,37.3044136 C76.5210973,37.5446449 75.8326699,38.4133885 75.4736555,38.4444444 L75.5303253,37.4077689 C75.5613513,37.1938283 75.522094,37.2270203 75.5087971,37.0602386 C75.2374785,36.9945118 74.0182861,37.2000723 73.6782672,37.236222 C73.213828,37.2858457 72.748439,37.2649775 72.287324,37.3949522 C72.1037012,37.446712 72.1139904,37.5048802 72.0619112,37.7073187 C71.917229,38.2694469 71.8247844,38.8861284 71.7242667,39.5060962 C71.3747501,41.6612771 71.2479553,44.1327681 70.9175925,46.2095698 C70.8534828,46.6129679 70.8382864,46.7526373 70.6693851,47.0446285 C70.4586937,47.4085905 69.9469241,47.9161655 69.4036537,47.9161655 C69.123154,47.9161655 68.8996406,47.8934898 68.7106357,47.6519439 C68.3646016,47.2102599 68.5798836,46.4187453 68.651908,45.9336817 C68.9281338,44.0762431 69.1658938,42.1494627 69.4634894,40.2916954 C69.554826,39.721187 69.6417302,39.123895 69.6493284,38.5540438 C69.6524943,38.3118407 69.6841534,38.2004338 69.6841534,37.9344047 C69.1809318,37.8126458 68.4996277,37.8616123 67.9649053,37.8616123 C64.9737522,37.8616123 62.4471967,39.6971968 60.8563263,42.1749318 C59.6855722,43.9980282 59.7558555,45.5930527 58.9469651,47.4785895 C58.8044991,47.8110027 58.6298991,48.1215617 58.4546659,48.4245621 C58.2070916,48.8521148 57.5530144,49.8105754 56.9473755,49.8105754 L56.7368424,49.8105754 C55.6251326,49.8105754 56.3909666,44.8947057 56.4712225,44.3979756 L56.8622125,41.9626343 C56.9013115,41.7196096 56.9825171,41.3683 56.9825171,41.1402281 C57.3052818,41.1124585 58.4351956,40.8556311 58.7999085,40.7685432 C59.5199951,40.5966677 59.3213341,40.8043643 59.4088716,39.9436722 C59.4261258,39.7744257 59.4737728,39.4236091 59.4737728,39.2459825 L58.1774904,39.2842683 C57.8718216,39.3097374 57.5216718,39.3552532 57.1930502,39.3552532 C57.2641249,38.4672845 57.3967766,37.5832594 57.4770325,36.6992343 C57.5432,35.9695028 57.7545246,34.6774787 57.7545246,34 L54.8523337,34.3749712 C54.7344035,34.3930461 54.5713591,34.4372474 54.4211366,34.4372474" id="Fill-4" fill="#3973C8"></path>
                    <path d="M27.5281628,16.7147705 C27.5281628,18.160697 27.9306474,19.1778953 28.6977521,20.1955886 C28.9026562,20.4673806 29.675838,21.2527223 29.940733,21.4763277 C30.13956,21.6444856 30.2952248,21.8154488 30.5122829,21.9684246 L31.8222666,22.8126794 C31.9810478,22.9031117 32.1194165,22.9739063 32.2825606,23.0569126 C33.0744408,23.4595673 33.9102625,23.7722848 34.649787,24.244579 C36.4177274,25.3739926 37.6825231,27.6582331 37.6825231,29.9223408 C37.6825231,31.8567338 36.974786,33.2727913 35.9756644,34.6266353 C35.2607595,35.5958121 33.9473478,36.5276937 32.8946239,36.9239126 C30.7913576,37.7158552 28.3163033,37.802492 26.2847145,36.7273709 C24.790395,35.9365834 23.5561402,34.2320667 23.5561402,32.3369491 C23.5561402,31.2718943 23.818542,30.3223552 24.3766914,29.6573148 C24.8773429,29.0605937 25.4083795,28.6617345 26.2638345,28.4368089 C27.2370899,28.1806941 28.0002992,28.260565 28.760392,28.6902834 C29.6544906,29.1959121 29.7386337,29.9350476 29.7386337,31.0200701 C30.8338966,31.0200701 32.0789031,30.1160772 32.521901,28.9926045 C32.7853936,28.3244286 32.8860537,27.5422223 32.7026529,26.8194241 L32.5186288,26.318911 C32.3034406,25.8642742 31.988683,25.4614545 31.6086366,25.1607836 C30.859607,24.568188 29.9517962,24.214875 28.9442603,24.214875 C27.4990243,24.214875 26.5997837,24.3642203 25.3320274,24.9251316 C24.907728,25.1129271 24.5437311,25.3589755 24.1847204,25.61245 C23.4846185,26.1068572 23.295764,26.4114886 22.7703369,26.9681093 C22.2933701,27.4732429 21.9899874,28.0120412 21.679437,28.6661901 C21.0098759,30.0771319 20.7619654,32.2943733 21.2716545,33.9153886 C21.5582086,34.8261474 22.0336172,35.6510946 22.6667162,36.3158049 C23.0461394,36.7141691 23.474646,37.0914104 23.9377448,37.3841602 C24.4745467,37.7237763 24.935464,37.8689961 25.4903411,38.1541548 L26.141827,38.4520203 C28.5438014,39.3736706 32.0637885,39.0375199 34.3272384,38.1487091 C35.910843,37.5269046 37.2512117,36.7070731 38.4342016,35.5479556 C38.7720207,35.2169206 39.0785198,34.830108 39.4010684,34.4865313 C40.0375955,33.8089492 40.781483,32.329193 41.1122901,31.4332862 C41.590971,30.1376951 41.5855172,29.3833776 41.5855172,28.0197972 C41.5855172,27.3473308 41.3701732,26.5489523 41.2099896,26.039528 C41.0149022,25.4195388 40.7973767,24.9276069 40.5379354,24.3734616 C40.2890899,23.8420893 39.9796302,23.3795315 39.6433694,22.9428821 L38.6925522,21.9010955 C37.7328532,21.0028784 36.5710549,20.2658882 35.4025563,19.7153734 C33.9805376,19.0453823 32.715586,18.4140065 31.7117898,17.0760046 C31.3677379,16.6172422 31.1260602,16.1192045 30.9901846,15.4622502 C30.7117333,14.1164923 31.3981229,13.0652994 32.4433675,12.4090052 C32.8820024,12.1335827 33.4639923,11.8416581 34.0141948,11.6947881 C34.782702,11.4896652 35.6207051,11.3584724 36.4725762,11.4842195 C38.4092703,11.7702034 39.6581724,13.7347954 37.5683066,15.0571202 C37.350002,15.1950789 37.2096076,15.2564673 36.9447126,15.3478897 C36.4884699,15.5053211 35.894326,15.6054897 35.4038028,15.6181964 C35.1513735,15.6247973 34.8014004,15.6292529 34.5488153,15.6635776 C33.8887592,15.7531848 34.0215184,15.9190323 34.0215184,16.5685606 C34.0215184,16.9649445 34.1179713,17.3050557 34.2689615,17.5502791 C34.494278,17.9162988 34.9143704,18.1646576 35.2897422,18.3349607 C36.8876823,19.0603993 39.1640653,18.4438755 40.3718307,17.4779992 C41.3843529,16.6680691 42,15.6904763 42,14.2270573 C42,13.2555703 41.4889085,12.370555 40.9402642,11.6908276 C40.5437008,11.1993908 39.8683743,10.7655468 39.3113157,10.5260992 C37.733009,9.84785704 35.7132625,9.86881489 33.9453221,10.3414391 C32.1985733,10.8082876 30.9506062,11.4396634 29.7341149,12.4659379 C28.5762121,13.4430357 27.5281628,14.9685031 27.5281628,16.7147705" id="Fill-7" fill="#3973C8"></path>
                    <path d="M48.1628093,30.014237 C47.8254655,30.014237 47.730284,29.5279663 47.6569554,29.1645058 C47.2597185,27.1940914 47.6799414,25.0890027 48.4849371,23.2954286 C48.73665,22.7347663 48.9011133,22.5104693 49.3001308,22.0415139 C49.3630995,21.9676033 49.3541965,21.9542962 49.4267157,21.8824699 L49.7694014,21.6177706 C50.0143156,21.4649793 50.3613719,21.3767997 50.7461446,21.3767997 C50.7461446,21.5409741 50.6993633,21.8250729 50.6763772,21.983155 L50.4295205,23.8357293 C50.3095725,24.6633354 50.1936712,25.4861317 50.1004322,26.3175857 C50.0068695,27.1508032 49.8717053,27.9572462 49.7744195,28.8026486 C49.7127458,29.3384602 49.8014523,29.1885548 49.1886002,29.6087709 C49.0247844,29.7209996 48.9475709,29.8006819 48.7483049,29.8834105 C48.6173494,29.9379215 48.3313194,30.014237 48.1628093,30.014237 M60.2903536,19.8484058 C60.2903536,19.3783281 60.3612541,18.9003944 60.3979993,18.4620614 C59.8698069,18.3402131 59.0759804,18.4946077 58.6368183,18.5302002 C56.3937406,18.7116899 56.7898445,18.9234814 56.4403601,21.5081072 C56.2567958,22.8643102 55.9063402,26.8881882 55.5947342,27.8862215 C55.5003621,28.1884372 55.4242817,28.3521307 55.2913837,28.6165094 C54.9618098,29.2727263 54.5124496,29.4809906 53.7959986,29.4809906 C53.1334514,29.4809906 53.3822506,27.691104 53.4015135,27.2418688 C53.4186721,26.8482669 53.4984756,26.3999936 53.5556168,26.0083156 C53.7191088,24.8874721 54.405937,20.7056724 54.405937,19.7772208 C54.405937,18.9749463 53.1839558,19.101925 52.6118958,19.101925 C51.1927529,19.101925 48.5304235,20.4488291 47.4538045,21.5275067 C46.8906474,22.0916961 46.550228,22.4019282 46.0555433,23.0571832 C44.9144987,24.5685824 44.0005624,27.2705672 44.0005624,29.1967315 C44.0005624,30.1710365 43.9681877,31.2317575 44.3947237,32.0410864 C44.6407711,32.5081179 45.1543949,33 45.8663135,33 C46.8551972,33 47.6129259,32.6992272 48.3118946,32.1881059 C48.7406969,31.8743467 49.113491,31.5121688 49.5155841,31.2121977 C49.6931591,31.0797678 49.8017761,31.0384036 49.9927865,30.9383598 C50.3196086,31.4220652 51.1263849,32.1824945 51.7866659,32.1824945 C52.9382322,32.1824945 53.5303646,31.6115713 54.4203438,31.0236535 C54.5862638,30.9141504 55.0189511,30.6236386 55.1953929,30.5829156 L55.159457,31.7558653 C55.9660715,31.7558653 57.8316607,31.6736177 58.4203938,31.2897957 C58.8984055,30.9779604 59.1718094,27.5139431 59.2563072,26.8214923 C59.4448896,25.2754625 59.745812,23.0020308 60.4217947,21.6491946 C60.5690993,21.3546746 60.655054,21.2482177 60.8732592,21.0298528 C61.0966443,20.8061972 61.2300278,20.747197 61.5821022,20.6659114 C61.5821022,20.9553009 61.6698375,21.392191 61.6528408,21.5873085 C61.6274267,21.8779807 61.5944045,22.2380744 61.5463282,22.5143172 C61.3216481,23.8073515 61.103443,24.6487457 60.8494638,25.9116386 C60.5577682,27.3606708 60.2471334,29.6118171 61.6385959,30.5625541 C62.5630541,31.1942411 64.149412,30.6476876 64.8941908,30.0251392 L65.6098325,29.4191045 C66.1409386,28.8876217 66.5331575,28.2163341 66.8057521,27.5112175 C66.8933255,27.2843553 67,26.9625798 67,26.6730299 C66.4854049,26.6730299 66.3549351,26.8585278 66.091891,27.3018309 C65.5271153,28.2536902 63.8858823,28.8382411 64.1193036,27.1613848 C64.1382427,27.0244658 64.1296634,26.9011747 64.1495739,26.7637747 C64.1709411,26.6170759 64.1795204,26.5139858 64.2008877,26.3882897 L64.6314705,24.2554645 C64.959102,22.9213865 65.3522921,21.2140681 65.1193565,19.8275634 C64.9715662,18.9472098 64.482709,18 63.519725,18 C62.6503038,18 62.1797382,18.2129138 61.5303027,18.6951763 C61.0416074,19.0581558 60.6301256,19.7584626 60.2903536,19.8484058" id="Fill-9" fill="#3973C8"></path>
                    <path d="M60.4697323,57.5327661 L59.1843137,53.9395764 C59.1005525,53.6774435 58.994424,53.5962533 58.7601086,53.5962533 C58.4312339,53.5962533 58.0078001,53.6186896 58.0078001,53.9542649 C58.0078001,54.562949 57.9787999,57.9180562 58.0326354,58.3296565 C58.0980401,58.8285806 57.9050653,59 58.2129611,59 C58.4375584,59 58.5245591,58.9499623 58.6575281,58.8568277 C58.6575281,57.290164 58.6232831,55.821316 58.6232831,54.2406095 L59.0235785,55.3603237 C59.168271,55.7446454 59.2814952,56.0902282 59.4243366,56.4798764 C59.565327,56.8638753 59.6935141,57.2231781 59.824015,57.6002362 C59.8851005,57.7766594 59.9589893,57.9748732 60.0200749,58.1466154 C60.1587514,58.5367479 60.1403948,58.6421499 60.3671518,58.6421499 C60.8186602,58.6421499 60.7902771,58.4773484 61.0552896,57.6446245 C61.1948916,57.2065527 61.3386586,56.7902715 61.4825798,56.3384796 L62.3377773,53.7978568 C62.3402454,53.7930144 62.3454901,53.7825226 62.350272,53.7754205 L62.3501178,57.7476053 C62.3495008,57.9760031 62.3809691,58.1157858 62.384517,58.2842998 C62.5052997,58.2947915 63,58.3487031 63,58.105294 L63,53.2742367 C63,52.7811234 62.1767336,53.0902271 62.1009937,53.1565674 C61.8779389,53.3520372 61.7739701,53.7760662 61.6706183,54.1017953 L60.7386012,56.8480569 C60.6917072,56.9965558 60.5798713,57.4485091 60.4697323,57.5327661" id="Fill-11" fill="#3973C8"></path>
                    <path d="M53.7345102,59.301933 C53.3208246,59.301933 53.0076635,59.0445442 52.8472455,58.638159 C52.522798,57.8160979 52.5583127,56.24028 52.9932168,55.4409297 C53.4827474,54.5409293 55.3356799,53.949761 55.3356799,56.5936734 C55.3356799,57.370313 55.3272527,58.0062146 54.9313244,58.6106308 C54.7982948,58.8138234 54.658644,58.9640242 54.4551871,59.0963317 C54.3245653,59.181153 53.9238214,59.301933 53.7345102,59.301933 M52.0000101,57.0133065 C52.0000101,57.8135171 51.9932382,58.5638329 52.330778,59.2288112 C53.0627413,60.6711173 55.3826315,59.9925469 55.8366473,58.0058705 C56.0276139,57.1695291 56.042211,56.5584029 55.9267884,55.6888556 C55.8849533,55.3738297 55.813623,55.1109353 55.6917295,54.8514819 C55.3636703,54.1532977 54.9478778,54 54.2682836,54 C53.4588201,54 52.7864492,54.5495319 52.3804384,55.3122353 C52.1616319,55.7230938 52.0000101,56.4981849 52.0000101,57.0133065" id="Fill-13" fill="#3973C8"></path>
                    <path d="M68.6437119,54.2333484 L68.6437119,53.1333634 C68.6437119,52.9115922 68.6769497,52.8448354 68.6769497,52.6332882 C69.3244872,52.6332882 70.1039278,52.2710871 70.1039278,53.2999549 C70.1039278,54.0971283 69.2644496,54.2333484 68.6437119,54.2333484 M68.145894,57 C68.4017649,57 68.4691388,56.9840625 68.6437119,56.8667869 L68.6432627,54.8661855 C68.6736558,54.7213953 68.6982099,54.7756728 68.8682914,54.7588333 C69.6162908,54.6847091 69.7136086,54.874906 70.0582633,55.8458878 C70.1060239,55.980003 70.1424058,56.0777327 70.1939093,56.2097429 C70.2427179,56.3351376 70.2829925,56.4701549 70.3295553,56.5732972 C70.4711901,56.887235 71,56.6612539 71,56.5668321 C71,56.5563073 70.4273223,54.5979552 69.9380384,54.4666967 L69.9380384,54.3999399 C70.4129492,54.2888287 70.9511914,53.5033829 70.6953205,52.6726808 C70.5628186,52.2428206 70.080871,52 69.6724357,52 C69.414319,52 69.1566515,52.0408961 68.9120095,52.0694632 C67.8747517,52.190648 68.0464801,51.965118 68.0464801,53.7666516 L68.0466299,55.0335288 C68.0382456,55.1883927 68.0115955,55.2390618 68.0123441,55.4325665 C68.0135418,55.7105698 68.0130927,55.9887235 68.0130927,56.2665765 C68.0130927,56.4775222 67.9383825,57 68.145894,57" id="Fill-15" fill="#3973C8"></path>
                    <path d="M82.2176538,54.1345163 C82.2240889,53.8611524 82.9958346,51.9991551 83.0178083,51.7506826 C83.1138645,51.8168143 83.098326,51.8614421 83.1374077,51.9975349 L83.7832759,54.0038731 L82.2176538,54.1345163 Z M81,55.9630795 C81.6541868,56.1100716 81.6598371,55.7904596 81.7505569,55.4922043 C81.7998406,55.3300417 81.8345276,55.2456465 81.8822418,55.0932048 C81.92305,54.9630035 81.9985451,54.7727092 82.0089041,54.6569419 C82.6613644,54.6569419 83.2890258,54.5262987 83.9571815,54.5262987 C83.9714644,54.688314 84.0949877,54.9967321 84.152747,55.1590419 C84.1952817,55.2784914 84.2304395,55.3751114 84.2654404,55.4777702 C84.3674609,55.777793 84.3057777,55.7344907 84.792023,55.7344907 C85.1561577,55.7344907 84.9635744,55.4494911 84.8052072,55.0038019 L84.1613795,53.0937891 C84.0129004,52.6822704 83.8959692,52.242178 83.7438802,51.8203491 C83.6732507,51.6248998 83.6059172,51.4020552 83.537485,51.1977686 C83.4693667,50.9937767 83.3285784,50.9573969 82.890832,51.0438541 C82.642059,51.0930479 82.6329556,51.321784 82.5529088,51.5428612 C82.1124942,52.7573865 81.5928175,54.0545397 81.1779865,55.2811425 C81.1048457,55.4973593 81,55.7683666 81,55.9630795 Z" id="Fill-17" fill="#3973C8"></path>
                    <path d="M65.0168033,56.2332164 C65.0168033,56.5399212 65.0023527,57.2210945 65.0455262,57.4831636 C65.1431124,58.0755075 64.6667773,58.0899441 66.5612353,57.8680914 C67.0079557,57.8156481 67.5312107,57.7822081 67.9431425,57.702954 C68.1351038,57.0225172 67.8494811,57.1755749 66.9567541,57.2801669 L65.7682354,57.4089181 L65.7682354,55.7432548 C66.1114822,55.6774061 66.9291017,55.6127358 67.339963,55.5719303 C67.694806,55.5364279 67.66644,55.5102063 67.66644,55.1554776 C67.66644,54.9816488 67.428986,55.0312931 67.3000008,55.0466136 C67.1076828,55.0697417 66.9847633,55.0743084 66.8033278,55.095816 C66.5020057,55.131613 66.1080925,55.1880337 65.7682354,55.1880337 L65.7682354,53.8164063 C65.7682354,53.6897175 65.9220185,53.7187381 66.2461762,53.688539 C66.6124369,53.6542151 67.7802609,53.5543372 67.9431425,53.4898143 C68.0021938,53.2801885 68.0021938,53.2094785 67.9431425,53 C67.5258586,53 66.2056788,53.1477545 65.6565553,53.2016709 C65.4030451,53.2267141 65.1129624,53.2289237 65.063188,53.4301527 C64.9820148,53.7574813 65.1042206,54.4240707 65.0335732,54.8100296 C64.9695266,55.1585712 65.0168033,55.8450478 65.0168033,56.2332164" id="Fill-19" fill="#3973C8"></path>
                    <path d="M47,57.2668561 C47,58.6330856 47.4104405,60 48.918335,60 C49.3630249,60 49.9001514,59.8446961 50.1824328,59.6953851 C51.006444,59.2590957 50.9999992,59.1210858 50.9999992,58.5954154 C50.9999992,58.0526221 50.3354503,59.278787 49.1632367,59.278787 C48.5272289,59.278787 48.1744232,58.9150984 48.004281,58.4586041 C47.9188416,58.2295008 47.8302719,57.9570768 47.8170141,57.6837966 C47.8068866,57.4783229 47.7831329,57.3909965 47.7739261,57.2276448 C47.7623255,57.0223423 47.8072548,56.9680629 47.8160934,56.7728628 C47.8396629,56.2449664 48.0773832,55.6288875 48.3397779,55.3241013 C49.4090591,54.0832109 50.6372501,55.0270205 50.7550976,55.0270205 C50.9799283,55.0270205 50.9182426,54.74672 50.9182426,54.4575156 C50.9182426,54.0725947 48.993831,53.429633 47.7048749,55.0372942 C47.281729,55.5650194 47,56.3569496 47,57.2668561" id="Fill-21" fill="#3973C8"></path>
                    <path d="M74,53.8191613 C74,57.0919835 77.9086112,55.8892743 77.9086112,55.2288061 C77.9086112,54.8630735 77.966056,54.6850513 77.5684869,54.9451211 C77.0414852,55.2899634 76.791164,55.3965344 76.0952817,55.3965344 C75.2377905,55.3965344 74.8058636,54.6476606 74.8058636,53.9198286 C74.8058636,53.2375617 74.8178616,52.7448218 75.2806923,52.1673094 C75.7751541,51.5502871 76.7413542,51.3830129 77.5190408,51.7943106 C77.6106616,51.842752 77.7455479,51.9547728 77.8542568,51.9231345 C77.8913414,51.9122352 78.2947277,51.4231284 77.5733952,51.1448931 C77.1841883,50.9947247 76.9573177,51.000023 76.5384795,51.000023 C74.9103914,51.000023 74,52.4603799 74,53.8191613" id="Fill-23" fill="#3973C8"></path>
                    <path d="M86.2726356,56 L88.9397514,55.8657408 C89.1677883,55.0895498 88.7281392,55.3131134 87.9647692,55.327947 C87.6229048,55.334607 87.1759981,55.3959091 86.8230565,55.3959091 L86.8652644,53.2815153 C86.8633545,53.0261654 86.909955,52.9168811 86.9086181,52.6786353 C86.9061353,52.2178855 86.9471972,51.876864 86.950062,51.4360941 C86.9521629,51.1324593 87.0743937,50.9051117 86.3648817,51.0395223 C86.2134301,51.0679786 86.1922306,51.0740331 86.1838273,51.2314509 C86.1635828,51.61107 86.1842092,52.0834749 86.1433383,52.474749 L86.0608325,53.684293 C86.0337125,54.0802594 86.1087699,54.5746119 86.0547209,54.9548365 C86.0190066,55.2074618 85.8751943,56 86.2726356,56" id="Fill-25" fill="#3973C8"></path>
                    <path d="M79.0106339,55.1837987 C79.0106339,55.9553544 78.900055,56 79.3920665,56 C79.6024675,56 79.7317631,55.9498312 79.8690186,55.8979748 C79.8690186,55.01749 79.9167783,54.2430193 79.9167783,53.3809451 L79.9632473,51.4752992 C79.9617413,51.0492482 80.1768753,51 79.5828903,51 C79.4751082,51 79.3453824,51.0161092 79.2632012,51.0441853 C79.0039647,51.132556 79.1052928,51.4159251 79.1059382,51.7822952 C79.1065836,52.1776619 79.0583936,52.4846579 79.0583936,52.9048788 C79.0583936,53.6718319 79.0106339,54.3864682 79.0106339,55.1837987" id="Fill-27" fill="#3973C8"></path>
                    <g id="Group-31" transform="translate(19.000000, 0.000000)">
                        <mask id="mask-2" fill="white">
                            <use xlink:href="#path-1"></use>
                        </mask>
                        <g id="Clip-30"></g>
                        <path d="M0.0768131068,9.05052128 L0.0768131068,9.65195745 C0.0768131068,10.4948298 0.541055825,11.5280745 0.955478155,11.9603617 C1.04086165,12.0492447 1.05800243,12.0916915 1.13265291,12.1730745 C1.35083738,12.4105213 2.42894417,13.2217979 2.71553155,13.3909468 C3.86492476,14.0694574 4.76649757,14.4837128 6.08441505,14.8103617 C6.55122087,14.9260532 6.95875485,14.9940319 7.53353155,14.9940319 L8.48780825,12.5131277 C8.55108495,12.3417447 8.59882282,12.3517979 8.59882282,12.1283936 C7.42972573,11.857117 6.42658981,11.5789787 5.36706553,11.032117 C5.1975801,10.9446702 4.84050728,10.7423298 4.72324515,10.6122766 C4.67999272,10.5642447 4.6695801,10.5353617 4.61335194,10.4740851 C4.16689078,9.98881915 3.59211408,9.45073404 3.59211408,8.48451064 C3.59211408,6.76796809 5.46302184,5.63818085 6.68818689,4.84717021 C8.68052184,3.56068085 10.904017,2.93626596 13.2175413,2.4728617 C13.6189879,2.39243617 14.0511917,2.3153617 14.4595267,2.25967021 C17.6900024,1.82004255 20.0483811,1.66174468 23.2573908,2.05206383 C24.1929248,2.166 25.1210898,2.38174468 25.9230218,2.65094681 C27.1584393,3.066 28.6713131,3.88381915 29.1012743,5.1803617 C29.6560267,6.85445745 28.2057888,8.1735 26.9711723,9.02961702 C26.5581917,9.31605319 25.1483228,10.0713191 25.070949,10.1434468 C24.7217257,10.4677021 25.2923374,11.2749894 25.4344296,11.7345638 C25.4986675,11.9418511 25.5491286,12.1914255 25.6069587,12.4117979 C25.6673519,12.6417447 25.7706772,12.8351489 25.8204976,13.0481809 C26.255585,13.0481809 26.7774976,12.8483936 27.1464248,12.671266 C28.130017,12.1994043 29.8497015,11.178766 30.5524733,10.4750426 C30.6301675,10.3971702 30.6851141,10.3349362 30.7645704,10.2616915 C31.2735073,9.79270213 31.5437549,9.5847766 32.0193714,8.92956383 C32.4022354,8.40232979 32.9931917,7.30429787 32.9931917,6.43254255 C32.9931917,5.59589362 32.8634345,5.06993617 32.4719199,4.36924468 C31.6917743,2.97328723 29.9847451,2.12929787 28.4991044,1.53488298 C26.3499393,0.67493617 23.3775364,0.0644042553 20.920318,0.0644042553 L17.0596383,0.144989362 C16.5556675,0.210734043 16.0106869,0.243925532 15.4937403,0.318287234 C12.9842985,0.678765957 10.8878374,1.1003617 8.53298301,1.97993617 C8.13297816,2.12929787 7.65992476,2.27259574 7.27305583,2.45834043 C6.87657524,2.64871277 6.4791335,2.7803617 6.08970146,2.97743617 L5.52149272,3.2603617 C5.40487136,3.31940426 5.3598568,3.35562766 5.24611893,3.4103617 C5.15929369,3.45217021 5.18332282,3.43748936 5.1038665,3.48105319 C5.0351432,3.51871277 5.00102184,3.53562766 4.94126942,3.56674468 C4.76089078,3.65993617 4.58563835,3.77339362 4.39692961,3.87360638 C3.66804612,4.26089362 3.22350728,4.54860638 2.60611893,5.09642553 C2.31104126,5.35828723 1.98744903,5.62621277 1.7351432,5.92685106 C1.66786165,6.00711702 1.59881796,6.06520213 1.52320631,6.14020213 C1.42949272,6.23307447 1.40914806,6.27631915 1.32744903,6.36967021 L0.938817961,6.86690426 C0.863686893,6.96631915 0.839177184,7.01562766 0.771895631,7.12509574 C0.427478155,7.686 0.0768131068,8.33020213 0.0768131068,9.05052128" id="Fill-29" fill="#F3BE50" mask="url(#mask-2)"></path>
                    </g>
                </g>
            </g>
        </g>
    </g>
</svg>